<?xml version="1.0" encoding="utf-8"?>
<!-- Generator: Adobe Illustrator 16.0.0, SVG Export Plug-In . SVG Version: 6.00 Build 0)  -->
<!DOCTYPE svg PUBLIC "-//W3C//DTD SVG 1.1//EN" "http://www.w3.org/Graphics/SVG/1.1/DTD/svg11.dtd">
<svg version="1.1" id="Calque_1" xmlns="http://www.w3.org/2000/svg" xmlns:xlink="http://www.w3.org/1999/xlink" x="0px" y="0px"
	 width="75px" height="75px" viewBox="0 0 75 75" enable-background="new 0 0 75 75" xml:space="preserve">
<g>
	<polyline fill="#8DD8F8" points="37.495,52.362 19.039,65.203 25.549,43.683 7.633,30.097 30.111,29.638 37.495,8.4 	"/>
	<path fill="#8DD8F8" d="M56.846,66.435L37.495,52.972L18.144,66.435l6.826-22.563L6.185,29.626l23.569-0.481l7.741-22.267
		l7.742,22.267l23.568,0.481L50.021,43.871L56.846,66.435z M37.495,51.753l17.562,12.219l-6.194-20.478l17.047-12.926L44.521,30.13
		L37.495,9.923L30.469,30.13L9.081,30.568l17.047,12.926l-6.194,20.478L37.495,51.753z"/>
</g>
</svg>
